<?xml version="1.0" encoding="UTF-8"?>
<svg id="Calque_2" data-name="Calque 2" xmlns="http://www.w3.org/2000/svg"
  viewBox="0 0 299.14 423.91">
  <defs>
    <style>
      .cls-1 {
      fill: #2bd9a5;
      }
    </style>
  </defs>
  <g id="_01" data-name="01">
    <path class="cls-1"
      d="M291.61,197.04h0c-12.99-9.59-26.7-11.49-45.24-9.13-43.24,5.5-45.97,10.94-128.33,32.3-61.67,16-49.55-62.55-49.55-62.55,0,0,12.88-87.33,52.54-16.14,21.65,38.86,59.97,20.75,90.31-3.72L29.54,3.65C17.3-5.37,0,3.36,0,18.57V204.51c0,17.01,11.74,31.82,28.32,35.64,18.67,4.3,36.09,7.42,49.04,12.67,28,11.35,27.53,34.28,21.75,52.17-5.39,16.69-16.19,31.09-30.07,41.8-16.63,12.84-38.5,20.57-36.01-30.52C34.33,289.85,19.98,277.42,0,272.67v132.68c0,15.21,17.3,23.94,29.54,14.91L291.61,226.87c10.04-7.41,10.04-22.42,0-29.82Z" />
  </g>
</svg>