<?xml version="1.0" encoding="UTF-8"?>
<svg id="Calque_2" data-name="Calque 2" xmlns="http://www.w3.org/2000/svg"
  viewBox="0 0 295.17 418.28">
  <defs>
    <style>
      .cls-1 {
      fill: #006c4f;
      }
    </style>
  </defs>
  <g id="Background">
    <path class="cls-1"
      d="M287.74,194.43h0c-12.82-9.46-26.35-11.34-44.64-9.01-42.67,5.43-45.36,10.79-126.63,31.87-60.86,15.78-48.89-61.72-48.89-61.72,0,0,12.71-86.17,51.84-15.92,21.37,38.35,59.18,20.47,89.11-3.67L29.14,3.61C17.07-5.3,0,3.32,0,18.32V201.79c0,16.79,11.58,31.4,27.94,35.16,18.42,4.24,35.61,7.32,48.39,12.5,27.63,11.2,27.16,33.82,21.46,51.48-5.32,16.47-15.97,30.67-29.67,41.25-16.41,12.67-37.99,20.3-35.53-30.12C33.87,286.01,19.71,273.74,0,269.05v130.92c0,15,17.07,23.62,29.14,14.71L287.74,223.86c9.9-7.31,9.9-22.12,0-29.43Z" />
  </g>
</svg>